<svg width="294" height="61" viewBox="0 0 294 61" fill="none" xmlns="http://www.w3.org/2000/svg">
<path d="M25 26C24.4477 26 24 25.5523 24 25C24 24.4477 24.4477 24 25 24C25.5523 24 26 24.4477 26 25C26 25.5523 25.5523 26 25 26Z" fill="#710FEE" fill-opacity="0.2"/>
<path d="M31 26C30.4477 26 30 25.5523 30 25C30 24.4477 30.4477 24 31 24C31.5523 24 32 24.4477 32 25C32 25.5523 31.5523 26 31 26Z" fill="#710FEE" fill-opacity="0.2"/>
<path d="M25 20C24.4477 20 24 19.5523 24 19C24 18.4477 24.4477 18 25 18C25.5523 18 26 18.4477 26 19C26 19.5523 25.5523 20 25 20Z" fill="#710FEE" fill-opacity="0.2"/>
<path d="M25 14C24.4477 14 24 13.5523 24 13C24 12.4477 24.4477 12 25 12C25.5523 12 26 12.4477 26 13C26 13.5523 25.5523 14 25 14Z" fill="#710FEE" fill-opacity="0.2"/>
<path d="M31 20C30.4477 20 30 19.5523 30 19C30 18.4477 30.4477 18 31 18C31.5523 18 32 18.4477 32 19C32 19.5523 31.5523 20 31 20Z" fill="#710FEE" fill-opacity="0.2"/>
<path d="M31 14C30.4477 14 30 13.5523 30 13C30 12.4477 30.4477 12 31 12C31.5523 12 32 12.4477 32 13C32 13.5523 31.5523 14 31 14Z" fill="#710FEE" fill-opacity="0.2"/>
<path d="M37 26C36.4477 26 36 25.5523 36 25C36 24.4477 36.4477 24 37 24C37.5523 24 38 24.4477 38 25C38 25.5523 37.5523 26 37 26Z" fill="#710FEE" fill-opacity="0.2"/>
<path d="M43 26C42.4477 26 42 25.5523 42 25C42 24.4477 42.4477 24 43 24C43.5523 24 44 24.4477 44 25C44 25.5523 43.5523 26 43 26Z" fill="#710FEE" fill-opacity="0.2"/>
<path d="M37 20C36.4477 20 36 19.5523 36 19C36 18.4477 36.4477 18 37 18C37.5523 18 38 18.4477 38 19C38 19.5523 37.5523 20 37 20Z" fill="#710FEE" fill-opacity="0.2"/>
<path d="M37 14C36.4477 14 36 13.5523 36 13C36 12.4477 36.4477 12 37 12C37.5523 12 38 12.4477 38 13C38 13.5523 37.5523 14 37 14Z" fill="#710FEE" fill-opacity="0.2"/>
<path d="M43 20C42.4477 20 42 19.5523 42 19C42 18.4477 42.4477 18 43 18C43.5523 18 44 18.4477 44 19C44 19.5523 43.5523 20 43 20Z" fill="#710FEE" fill-opacity="0.2"/>
<path d="M43 14C42.4477 14 42 13.5523 42 13C42 12.4477 42.4477 12 43 12C43.5523 12 44 12.4477 44 13C44 13.5523 43.5523 14 43 14Z" fill="#710FEE" fill-opacity="0.2"/>
<path d="M1 26C0.447715 26 0 25.5523 0 25C0 24.4477 0.447715 24 1 24C1.55228 24 2 24.4477 2 25C2 25.5523 1.55228 26 1 26Z" fill="#710FEE" fill-opacity="0.2"/>
<path d="M7 26C6.44772 26 6 25.5523 6 25C6 24.4477 6.44772 24 7 24C7.55228 24 8 24.4477 8 25C8 25.5523 7.55228 26 7 26Z" fill="#710FEE" fill-opacity="0.2"/>
<path d="M1 20C0.447715 20 0 19.5523 0 19C0 18.4477 0.447715 18 1 18C1.55228 18 2 18.4477 2 19C2 19.5523 1.55228 20 1 20Z" fill="#710FEE" fill-opacity="0.2"/>
<path d="M1 14C0.447715 14 0 13.5523 0 13C0 12.4477 0.447715 12 1 12C1.55228 12 2 12.4477 2 13C2 13.5523 1.55228 14 1 14Z" fill="#710FEE" fill-opacity="0.2"/>
<path d="M7 20C6.44772 20 6 19.5523 6 19C6 18.4477 6.44772 18 7 18C7.55228 18 8 18.4477 8 19C8 19.5523 7.55228 20 7 20Z" fill="#710FEE" fill-opacity="0.2"/>
<path d="M7 14C6.44772 14 6 13.5523 6 13C6 12.4477 6.44772 12 7 12C7.55228 12 8 12.4477 8 13C8 13.5523 7.55228 14 7 14Z" fill="#710FEE" fill-opacity="0.2"/>
<path d="M13 26C12.4477 26 12 25.5523 12 25C12 24.4477 12.4477 24 13 24C13.5523 24 14 24.4477 14 25C14 25.5523 13.5523 26 13 26Z" fill="#710FEE" fill-opacity="0.2"/>
<path d="M19 26C18.4477 26 18 25.5523 18 25C18 24.4477 18.4477 24 19 24C19.5523 24 20 24.4477 20 25C20 25.5523 19.5523 26 19 26Z" fill="#710FEE" fill-opacity="0.2"/>
<path d="M13 20C12.4477 20 12 19.5523 12 19C12 18.4477 12.4477 18 13 18C13.5523 18 14 18.4477 14 19C14 19.5523 13.5523 20 13 20Z" fill="#710FEE" fill-opacity="0.2"/>
<path d="M13 14C12.4477 14 12 13.5523 12 13C12 12.4477 12.4477 12 13 12C13.5523 12 14 12.4477 14 13C14 13.5523 13.5523 14 13 14Z" fill="#710FEE" fill-opacity="0.2"/>
<path d="M19 20C18.4477 20 18 19.5523 18 19C18 18.4477 18.4477 18 19 18C19.5523 18 20 18.4477 20 19C20 19.5523 19.5523 20 19 20Z" fill="#710FEE" fill-opacity="0.2"/>
<path d="M19 14C18.4477 14 18 13.5523 18 13C18 12.4477 18.4477 12 19 12C19.5523 12 20 12.4477 20 13C20 13.5523 19.5523 14 19 14Z" fill="#710FEE" fill-opacity="0.2"/>
<path d="M25 8C24.4477 8 24 7.55228 24 7C24 6.44772 24.4477 6 25 6C25.5523 6 26 6.44772 26 7C26 7.55228 25.5523 8 25 8Z" fill="#710FEE" fill-opacity="0.2"/>
<path d="M25 2C24.4477 2 24 1.55228 24 1C24 0.447716 24.4477 0 25 0C25.5523 0 26 0.447716 26 1C26 1.55228 25.5523 2 25 2Z" fill="#710FEE" fill-opacity="0.2"/>
<path d="M31 8C30.4477 8 30 7.55228 30 7C30 6.44772 30.4477 6 31 6C31.5523 6 32 6.44772 32 7C32 7.55228 31.5523 8 31 8Z" fill="#710FEE" fill-opacity="0.2"/>
<path d="M31 2C30.4477 2 30 1.55228 30 1C30 0.447716 30.4477 0 31 0C31.5523 0 32 0.447716 32 1C32 1.55228 31.5523 2 31 2Z" fill="#710FEE" fill-opacity="0.2"/>
<path d="M37 8C36.4477 8 36 7.55228 36 7C36 6.44772 36.4477 6 37 6C37.5523 6 38 6.44772 38 7C38 7.55228 37.5523 8 37 8Z" fill="#710FEE" fill-opacity="0.2"/>
<path d="M37 2C36.4477 2 36 1.55228 36 1C36 0.447716 36.4477 0 37 0C37.5523 0 38 0.447716 38 1C38 1.55228 37.5523 2 37 2Z" fill="#710FEE" fill-opacity="0.2"/>
<path d="M43 8C42.4477 8 42 7.55228 42 7C42 6.44772 42.4477 6 43 6C43.5523 6 44 6.44772 44 7C44 7.55228 43.5523 8 43 8Z" fill="#710FEE" fill-opacity="0.2"/>
<path d="M43 2C42.4477 2 42 1.55228 42 1C42 0.447716 42.4477 0 43 0C43.5523 0 44 0.447716 44 1C44 1.55228 43.5523 2 43 2Z" fill="#710FEE" fill-opacity="0.2"/>
<path d="M1.00001 8C0.447723 8 7.62939e-06 7.55228 7.62939e-06 7C7.62939e-06 6.44772 0.447723 6 1.00001 6C1.55229 6 2.00001 6.44772 2.00001 7C2.00001 7.55228 1.55229 8 1.00001 8Z" fill="#710FEE" fill-opacity="0.2"/>
<path d="M1.00001 2C0.447723 2 7.62939e-06 1.55228 7.62939e-06 1C7.62939e-06 0.447716 0.447723 0 1.00001 0C1.55229 0 2.00001 0.447716 2.00001 1C2.00001 1.55228 1.55229 2 1.00001 2Z" fill="#710FEE" fill-opacity="0.2"/>
<path d="M7.00001 8C6.44772 8 6.00001 7.55228 6.00001 7C6.00001 6.44772 6.44772 6 7.00001 6C7.55229 6 8.00001 6.44772 8.00001 7C8.00001 7.55228 7.55229 8 7.00001 8Z" fill="#710FEE" fill-opacity="0.2"/>
<path d="M7.00001 2C6.44772 2 6.00001 1.55228 6.00001 1C6.00001 0.447716 6.44772 0 7.00001 0C7.55229 0 8.00001 0.447716 8.00001 1C8.00001 1.55228 7.55229 2 7.00001 2Z" fill="#710FEE" fill-opacity="0.2"/>
<path d="M13 8C12.4477 8 12 7.55228 12 7C12 6.44772 12.4477 6 13 6C13.5523 6 14 6.44772 14 7C14 7.55228 13.5523 8 13 8Z" fill="#710FEE" fill-opacity="0.2"/>
<path d="M13 2C12.4477 2 12 1.55228 12 1C12 0.447716 12.4477 0 13 0C13.5523 0 14 0.447716 14 1C14 1.55228 13.5523 2 13 2Z" fill="#710FEE" fill-opacity="0.2"/>
<path d="M19 8C18.4477 8 18 7.55228 18 7C18 6.44772 18.4477 6 19 6C19.5523 6 20 6.44772 20 7C20 7.55228 19.5523 8 19 8Z" fill="#710FEE" fill-opacity="0.2"/>
<path d="M19 2C18.4477 2 18 1.55228 18 1C18 0.447716 18.4477 0 19 0C19.5523 0 20 0.447716 20 1C20 1.55228 19.5523 2 19 2Z" fill="#710FEE" fill-opacity="0.2"/>
<path d="M49 26C48.4477 26 48 25.5523 48 25C48 24.4477 48.4477 24 49 24C49.5523 24 50 24.4477 50 25C50 25.5523 49.5523 26 49 26Z" fill="#710FEE" fill-opacity="0.2"/>
<path d="M49 20C48.4477 20 48 19.5523 48 19C48 18.4477 48.4477 18 49 18C49.5523 18 50 18.4477 50 19C50 19.5523 49.5523 20 49 20Z" fill="#710FEE" fill-opacity="0.2"/>
<path d="M49 14C48.4477 14 48 13.5523 48 13C48 12.4477 48.4477 12 49 12C49.5523 12 50 12.4477 50 13C50 13.5523 49.5523 14 49 14Z" fill="#710FEE" fill-opacity="0.2"/>
<path d="M55 26C54.4477 26 54 25.5523 54 25C54 24.4477 54.4477 24 55 24C55.5523 24 56 24.4477 56 25C56 25.5523 55.5523 26 55 26Z" fill="#710FEE" fill-opacity="0.2"/>
<path d="M61 26C60.4477 26 60 25.5523 60 25C60 24.4477 60.4477 24 61 24C61.5523 24 62 24.4477 62 25C62 25.5523 61.5523 26 61 26Z" fill="#710FEE" fill-opacity="0.2"/>
<path d="M55 20C54.4477 20 54 19.5523 54 19C54 18.4477 54.4477 18 55 18C55.5523 18 56 18.4477 56 19C56 19.5523 55.5523 20 55 20Z" fill="#710FEE" fill-opacity="0.2"/>
<path d="M55 14C54.4477 14 54 13.5523 54 13C54 12.4477 54.4477 12 55 12C55.5523 12 56 12.4477 56 13C56 13.5523 55.5523 14 55 14Z" fill="#710FEE" fill-opacity="0.2"/>
<path d="M61 20C60.4477 20 60 19.5523 60 19C60 18.4477 60.4477 18 61 18C61.5523 18 62 18.4477 62 19C62 19.5523 61.5523 20 61 20Z" fill="#710FEE" fill-opacity="0.2"/>
<path d="M61 14C60.4477 14 60 13.5523 60 13C60 12.4477 60.4477 12 61 12C61.5523 12 62 12.4477 62 13C62 13.5523 61.5523 14 61 14Z" fill="#710FEE" fill-opacity="0.2"/>
<path d="M49 8C48.4477 8 48 7.55228 48 7C48 6.44772 48.4477 6 49 6C49.5523 6 50 6.44772 50 7C50 7.55228 49.5523 8 49 8Z" fill="#710FEE" fill-opacity="0.2"/>
<path d="M49 2C48.4477 2 48 1.55228 48 1C48 0.447716 48.4477 0 49 0C49.5523 0 50 0.447716 50 1C50 1.55228 49.5523 2 49 2Z" fill="#710FEE" fill-opacity="0.2"/>
<path d="M55 8C54.4477 8 54 7.55228 54 7C54 6.44772 54.4477 6 55 6C55.5523 6 56 6.44772 56 7C56 7.55228 55.5523 8 55 8Z" fill="#710FEE" fill-opacity="0.2"/>
<path d="M55 2C54.4477 2 54 1.55228 54 1C54 0.447716 54.4477 0 55 0C55.5523 0 56 0.447716 56 1C56 1.55228 55.5523 2 55 2Z" fill="#710FEE" fill-opacity="0.2"/>
<path d="M61 8C60.4477 8 60 7.55228 60 7C60 6.44772 60.4477 6 61 6C61.5523 6 62 6.44772 62 7C62 7.55228 61.5523 8 61 8Z" fill="#710FEE" fill-opacity="0.2"/>
<path d="M61 2C60.4477 2 60 1.55228 60 1C60 0.447716 60.4477 0 61 0C61.5523 0 62 0.447716 62 1C62 1.55228 61.5523 2 61 2Z" fill="#710FEE" fill-opacity="0.2"/>
<path d="M138 42C138 41.4477 138.448 41 139 41C139.552 41 140 41.4477 140 42C140 42.5523 139.552 43 139 43C138.448 43 138 42.5523 138 42Z" fill="#710FEE" fill-opacity="0.2"/>
<path d="M144 42C144 41.4477 144.448 41 145 41C145.552 41 146 41.4477 146 42C146 42.5523 145.552 43 145 43C144.448 43 144 42.5523 144 42Z" fill="#710FEE" fill-opacity="0.2"/>
<path d="M138 48C138 47.4477 138.448 47 139 47C139.552 47 140 47.4477 140 48C140 48.5523 139.552 49 139 49C138.448 49 138 48.5523 138 48Z" fill="#710FEE" fill-opacity="0.2"/>
<path d="M144 48C144 47.4477 144.448 47 145 47C145.552 47 146 47.4477 146 48C146 48.5523 145.552 49 145 49C144.448 49 144 48.5523 144 48Z" fill="#710FEE" fill-opacity="0.2"/>
<path d="M138 54C138 53.4477 138.448 53 139 53C139.552 53 140 53.4477 140 54C140 54.5523 139.552 55 139 55C138.448 55 138 54.5523 138 54Z" fill="#710FEE" fill-opacity="0.2"/>
<path d="M144 54C144 53.4477 144.448 53 145 53C145.552 53 146 53.4477 146 54C146 54.5523 145.552 55 145 55C144.448 55 144 54.5523 144 54Z" fill="#710FEE" fill-opacity="0.2"/>
<path d="M138 60C138 59.4477 138.448 59 139 59C139.552 59 140 59.4477 140 60C140 60.5523 139.552 61 139 61C138.448 61 138 60.5523 138 60Z" fill="#710FEE" fill-opacity="0.2"/>
<path d="M144 60C144 59.4477 144.448 59 145 59C145.552 59 146 59.4477 146 60C146 60.5523 145.552 61 145 61C144.448 61 144 60.5523 144 60Z" fill="#710FEE" fill-opacity="0.2"/>
<path d="M150 42C150 41.4477 150.448 41 151 41C151.552 41 152 41.4477 152 42C152 42.5523 151.552 43 151 43C150.448 43 150 42.5523 150 42Z" fill="#710FEE" fill-opacity="0.2"/>
<path d="M156 42C156 41.4477 156.448 41 157 41C157.552 41 158 41.4477 158 42C158 42.5523 157.552 43 157 43C156.448 43 156 42.5523 156 42Z" fill="#710FEE" fill-opacity="0.2"/>
<path d="M150 48C150 47.4477 150.448 47 151 47C151.552 47 152 47.4477 152 48C152 48.5523 151.552 49 151 49C150.448 49 150 48.5523 150 48Z" fill="#710FEE" fill-opacity="0.2"/>
<path d="M156 48C156 47.4477 156.448 47 157 47C157.552 47 158 47.4477 158 48C158 48.5523 157.552 49 157 49C156.448 49 156 48.5523 156 48Z" fill="#710FEE" fill-opacity="0.2"/>
<path d="M162 42C162 41.4477 162.448 41 163 41C163.552 41 164 41.4477 164 42C164 42.5523 163.552 43 163 43C162.448 43 162 42.5523 162 42Z" fill="#710FEE" fill-opacity="0.2"/>
<path d="M168 42C168 41.4477 168.448 41 169 41C169.552 41 170 41.4477 170 42C170 42.5523 169.552 43 169 43C168.448 43 168 42.5523 168 42Z" fill="#710FEE" fill-opacity="0.2"/>
<path d="M162 48C162 47.4477 162.448 47 163 47C163.552 47 164 47.4477 164 48C164 48.5523 163.552 49 163 49C162.448 49 162 48.5523 162 48Z" fill="#710FEE" fill-opacity="0.2"/>
<path d="M168 48C168 47.4477 168.448 47 169 47C169.552 47 170 47.4477 170 48C170 48.5523 169.552 49 169 49C168.448 49 168 48.5523 168 48Z" fill="#710FEE" fill-opacity="0.2"/>
<path d="M150 54C150 53.4477 150.448 53 151 53C151.552 53 152 53.4477 152 54C152 54.5523 151.552 55 151 55C150.448 55 150 54.5523 150 54Z" fill="#710FEE" fill-opacity="0.2"/>
<path d="M156 54C156 53.4477 156.448 53 157 53C157.552 53 158 53.4477 158 54C158 54.5523 157.552 55 157 55C156.448 55 156 54.5523 156 54Z" fill="#710FEE" fill-opacity="0.2"/>
<path d="M150 60C150 59.4477 150.448 59 151 59C151.552 59 152 59.4477 152 60C152 60.5523 151.552 61 151 61C150.448 61 150 60.5523 150 60Z" fill="#710FEE" fill-opacity="0.2"/>
<path d="M156 60C156 59.4477 156.448 59 157 59C157.552 59 158 59.4477 158 60C158 60.5523 157.552 61 157 61C156.448 61 156 60.5523 156 60Z" fill="#710FEE" fill-opacity="0.2"/>
<path d="M162 54C162 53.4477 162.448 53 163 53C163.552 53 164 53.4477 164 54C164 54.5523 163.552 55 163 55C162.448 55 162 54.5523 162 54Z" fill="#710FEE" fill-opacity="0.2"/>
<path d="M168 54C168 53.4477 168.448 53 169 53C169.552 53 170 53.4477 170 54C170 54.5523 169.552 55 169 55C168.448 55 168 54.5523 168 54Z" fill="#710FEE" fill-opacity="0.2"/>
<path d="M162 60C162 59.4477 162.448 59 163 59C163.552 59 164 59.4477 164 60C164 60.5523 163.552 61 163 61C162.448 61 162 60.5523 162 60Z" fill="#710FEE" fill-opacity="0.2"/>
<path d="M168 60C168 59.4477 168.448 59 169 59C169.552 59 170 59.4477 170 60C170 60.5523 169.552 61 169 61C168.448 61 168 60.5523 168 60Z" fill="#710FEE" fill-opacity="0.2"/>
<path d="M138 18C138 17.4477 138.448 17 139 17C139.552 17 140 17.4477 140 18C140 18.5523 139.552 19 139 19C138.448 19 138 18.5523 138 18Z" fill="#710FEE" fill-opacity="0.2"/>
<path d="M144 18C144 17.4477 144.448 17 145 17C145.552 17 146 17.4477 146 18C146 18.5523 145.552 19 145 19C144.448 19 144 18.5523 144 18Z" fill="#710FEE" fill-opacity="0.2"/>
<path d="M138 24C138 23.4477 138.448 23 139 23C139.552 23 140 23.4477 140 24C140 24.5523 139.552 25 139 25C138.448 25 138 24.5523 138 24Z" fill="#710FEE" fill-opacity="0.2"/>
<path d="M144 24C144 23.4477 144.448 23 145 23C145.552 23 146 23.4477 146 24C146 24.5523 145.552 25 145 25C144.448 25 144 24.5523 144 24Z" fill="#710FEE" fill-opacity="0.2"/>
<path d="M138 30C138 29.4477 138.448 29 139 29C139.552 29 140 29.4477 140 30C140 30.5523 139.552 31 139 31C138.448 31 138 30.5523 138 30Z" fill="#710FEE" fill-opacity="0.2"/>
<path d="M144 30C144 29.4477 144.448 29 145 29C145.552 29 146 29.4477 146 30C146 30.5523 145.552 31 145 31C144.448 31 144 30.5523 144 30Z" fill="#710FEE" fill-opacity="0.2"/>
<path d="M138 36C138 35.4477 138.448 35 139 35C139.552 35 140 35.4477 140 36C140 36.5523 139.552 37 139 37C138.448 37 138 36.5523 138 36Z" fill="#710FEE" fill-opacity="0.2"/>
<path d="M144 36C144 35.4477 144.448 35 145 35C145.552 35 146 35.4477 146 36C146 36.5523 145.552 37 145 37C144.448 37 144 36.5523 144 36Z" fill="#710FEE" fill-opacity="0.2"/>
<path d="M150 18C150 17.4477 150.448 17 151 17C151.552 17 152 17.4477 152 18C152 18.5523 151.552 19 151 19C150.448 19 150 18.5523 150 18Z" fill="#710FEE" fill-opacity="0.2"/>
<path d="M156 18C156 17.4477 156.448 17 157 17C157.552 17 158 17.4477 158 18C158 18.5523 157.552 19 157 19C156.448 19 156 18.5523 156 18Z" fill="#710FEE" fill-opacity="0.2"/>
<path d="M150 24C150 23.4477 150.448 23 151 23C151.552 23 152 23.4477 152 24C152 24.5523 151.552 25 151 25C150.448 25 150 24.5523 150 24Z" fill="#710FEE" fill-opacity="0.2"/>
<path d="M156 24C156 23.4477 156.448 23 157 23C157.552 23 158 23.4477 158 24C158 24.5523 157.552 25 157 25C156.448 25 156 24.5523 156 24Z" fill="#710FEE" fill-opacity="0.2"/>
<path d="M162 18C162 17.4477 162.448 17 163 17C163.552 17 164 17.4477 164 18C164 18.5523 163.552 19 163 19C162.448 19 162 18.5523 162 18Z" fill="#710FEE" fill-opacity="0.2"/>
<path d="M168 18C168 17.4477 168.448 17 169 17C169.552 17 170 17.4477 170 18C170 18.5523 169.552 19 169 19C168.448 19 168 18.5523 168 18Z" fill="#710FEE" fill-opacity="0.2"/>
<path d="M162 24C162 23.4477 162.448 23 163 23C163.552 23 164 23.4477 164 24C164 24.5523 163.552 25 163 25C162.448 25 162 24.5523 162 24Z" fill="#710FEE" fill-opacity="0.2"/>
<path d="M168 24C168 23.4477 168.448 23 169 23C169.552 23 170 23.4477 170 24C170 24.5523 169.552 25 169 25C168.448 25 168 24.5523 168 24Z" fill="#710FEE" fill-opacity="0.2"/>
<path d="M150 30C150 29.4477 150.448 29 151 29C151.552 29 152 29.4477 152 30C152 30.5523 151.552 31 151 31C150.448 31 150 30.5523 150 30Z" fill="#710FEE" fill-opacity="0.2"/>
<path d="M156 30C156 29.4477 156.448 29 157 29C157.552 29 158 29.4477 158 30C158 30.5523 157.552 31 157 31C156.448 31 156 30.5523 156 30Z" fill="#710FEE" fill-opacity="0.2"/>
<path d="M150 36C150 35.4477 150.448 35 151 35C151.552 35 152 35.4477 152 36C152 36.5523 151.552 37 151 37C150.448 37 150 36.5523 150 36Z" fill="#710FEE" fill-opacity="0.2"/>
<path d="M156 36C156 35.4477 156.448 35 157 35C157.552 35 158 35.4477 158 36C158 36.5523 157.552 37 157 37C156.448 37 156 36.5523 156 36Z" fill="#710FEE" fill-opacity="0.2"/>
<path d="M162 30C162 29.4477 162.448 29 163 29C163.552 29 164 29.4477 164 30C164 30.5523 163.552 31 163 31C162.448 31 162 30.5523 162 30Z" fill="#710FEE" fill-opacity="0.2"/>
<path d="M168 30C168 29.4477 168.448 29 169 29C169.552 29 170 29.4477 170 30C170 30.5523 169.552 31 169 31C168.448 31 168 30.5523 168 30Z" fill="#710FEE" fill-opacity="0.2"/>
<path d="M162 36C162 35.4477 162.448 35 163 35C163.552 35 164 35.4477 164 36C164 36.5523 163.552 37 163 37C162.448 37 162 36.5523 162 36Z" fill="#710FEE" fill-opacity="0.2"/>
<path d="M168 36C168 35.4477 168.448 35 169 35C169.552 35 170 35.4477 170 36C170 36.5523 169.552 37 169 37C168.448 37 168 36.5523 168 36Z" fill="#710FEE" fill-opacity="0.2"/>
<path d="M262 20C262 19.4477 262.448 19 263 19C263.552 19 264 19.4477 264 20C264 20.5523 263.552 21 263 21C262.448 21 262 20.5523 262 20Z" fill="#710FEE" fill-opacity="0.2"/>
<path d="M268 20C268 19.4477 268.448 19 269 19C269.552 19 270 19.4477 270 20C270 20.5523 269.552 21 269 21C268.448 21 268 20.5523 268 20Z" fill="#710FEE" fill-opacity="0.2"/>
<path d="M262 26C262 25.4477 262.448 25 263 25C263.552 25 264 25.4477 264 26C264 26.5523 263.552 27 263 27C262.448 27 262 26.5523 262 26Z" fill="#710FEE" fill-opacity="0.2"/>
<path d="M268 26C268 25.4477 268.448 25 269 25C269.552 25 270 25.4477 270 26C270 26.5523 269.552 27 269 27C268.448 27 268 26.5523 268 26Z" fill="#710FEE" fill-opacity="0.2"/>
<path d="M262 32C262 31.4477 262.448 31 263 31C263.552 31 264 31.4477 264 32C264 32.5523 263.552 33 263 33C262.448 33 262 32.5523 262 32Z" fill="#710FEE" fill-opacity="0.2"/>
<path d="M268 32C268 31.4477 268.448 31 269 31C269.552 31 270 31.4477 270 32C270 32.5523 269.552 33 269 33C268.448 33 268 32.5523 268 32Z" fill="#710FEE" fill-opacity="0.2"/>
<path d="M262 38C262 37.4477 262.448 37 263 37C263.552 37 264 37.4477 264 38C264 38.5523 263.552 39 263 39C262.448 39 262 38.5523 262 38Z" fill="#710FEE" fill-opacity="0.2"/>
<path d="M268 38C268 37.4477 268.448 37 269 37C269.552 37 270 37.4477 270 38C270 38.5523 269.552 39 269 39C268.448 39 268 38.5523 268 38Z" fill="#710FEE" fill-opacity="0.2"/>
<path d="M274 20C274 19.4477 274.448 19 275 19C275.552 19 276 19.4477 276 20C276 20.5523 275.552 21 275 21C274.448 21 274 20.5523 274 20Z" fill="#710FEE" fill-opacity="0.2"/>
<path d="M280 20C280 19.4477 280.448 19 281 19C281.552 19 282 19.4477 282 20C282 20.5523 281.552 21 281 21C280.448 21 280 20.5523 280 20Z" fill="#710FEE" fill-opacity="0.2"/>
<path d="M274 26C274 25.4477 274.448 25 275 25C275.552 25 276 25.4477 276 26C276 26.5523 275.552 27 275 27C274.448 27 274 26.5523 274 26Z" fill="#710FEE" fill-opacity="0.2"/>
<path d="M280 26C280 25.4477 280.448 25 281 25C281.552 25 282 25.4477 282 26C282 26.5523 281.552 27 281 27C280.448 27 280 26.5523 280 26Z" fill="#710FEE" fill-opacity="0.2"/>
<path d="M286 20C286 19.4477 286.448 19 287 19C287.552 19 288 19.4477 288 20C288 20.5523 287.552 21 287 21C286.448 21 286 20.5523 286 20Z" fill="#710FEE" fill-opacity="0.2"/>
<path d="M292 20C292 19.4477 292.448 19 293 19C293.552 19 294 19.4477 294 20C294 20.5523 293.552 21 293 21C292.448 21 292 20.5523 292 20Z" fill="#710FEE" fill-opacity="0.2"/>
<path d="M286 26C286 25.4477 286.448 25 287 25C287.552 25 288 25.4477 288 26C288 26.5523 287.552 27 287 27C286.448 27 286 26.5523 286 26Z" fill="#710FEE" fill-opacity="0.2"/>
<path d="M292 26C292 25.4477 292.448 25 293 25C293.552 25 294 25.4477 294 26C294 26.5523 293.552 27 293 27C292.448 27 292 26.5523 292 26Z" fill="#710FEE" fill-opacity="0.2"/>
<path d="M274 32C274 31.4477 274.448 31 275 31C275.552 31 276 31.4477 276 32C276 32.5523 275.552 33 275 33C274.448 33 274 32.5523 274 32Z" fill="#710FEE" fill-opacity="0.2"/>
<path d="M280 32C280 31.4477 280.448 31 281 31C281.552 31 282 31.4477 282 32C282 32.5523 281.552 33 281 33C280.448 33 280 32.5523 280 32Z" fill="#710FEE" fill-opacity="0.2"/>
<path d="M274 38C274 37.4477 274.448 37 275 37C275.552 37 276 37.4477 276 38C276 38.5523 275.552 39 275 39C274.448 39 274 38.5523 274 38Z" fill="#710FEE" fill-opacity="0.2"/>
<path d="M280 38C280 37.4477 280.448 37 281 37C281.552 37 282 37.4477 282 38C282 38.5523 281.552 39 281 39C280.448 39 280 38.5523 280 38Z" fill="#710FEE" fill-opacity="0.2"/>
<path d="M286 32C286 31.4477 286.448 31 287 31C287.552 31 288 31.4477 288 32C288 32.5523 287.552 33 287 33C286.448 33 286 32.5523 286 32Z" fill="#710FEE" fill-opacity="0.2"/>
<path d="M292 32C292 31.4477 292.448 31 293 31C293.552 31 294 31.4477 294 32C294 32.5523 293.552 33 293 33C292.448 33 292 32.5523 292 32Z" fill="#710FEE" fill-opacity="0.2"/>
<path d="M286 38C286 37.4477 286.448 37 287 37C287.552 37 288 37.4477 288 38C288 38.5523 287.552 39 287 39C286.448 39 286 38.5523 286 38Z" fill="#710FEE" fill-opacity="0.2"/>
<path d="M292 38C292 37.4477 292.448 37 293 37C293.552 37 294 37.4477 294 38C294 38.5523 293.552 39 293 39C292.448 39 292 38.5523 292 38Z" fill="#710FEE" fill-opacity="0.2"/>
<path d="M262 8C262 7.44772 262.448 7 263 7C263.552 7 264 7.44772 264 8C264 8.55228 263.552 9 263 9C262.448 9 262 8.55228 262 8Z" fill="#710FEE" fill-opacity="0.2"/>
<path d="M268 8C268 7.44772 268.448 7 269 7C269.552 7 270 7.44772 270 8C270 8.55228 269.552 9 269 9C268.448 9 268 8.55228 268 8Z" fill="#710FEE" fill-opacity="0.2"/>
<path d="M262 14C262 13.4477 262.448 13 263 13C263.552 13 264 13.4477 264 14C264 14.5523 263.552 15 263 15C262.448 15 262 14.5523 262 14Z" fill="#710FEE" fill-opacity="0.2"/>
<path d="M268 14C268 13.4477 268.448 13 269 13C269.552 13 270 13.4477 270 14C270 14.5523 269.552 15 269 15C268.448 15 268 14.5523 268 14Z" fill="#710FEE" fill-opacity="0.2"/>
<path d="M274 8C274 7.44772 274.448 7 275 7C275.552 7 276 7.44772 276 8C276 8.55228 275.552 9 275 9C274.448 9 274 8.55228 274 8Z" fill="#710FEE" fill-opacity="0.2"/>
<path d="M280 8C280 7.44772 280.448 7 281 7C281.552 7 282 7.44772 282 8C282 8.55228 281.552 9 281 9C280.448 9 280 8.55228 280 8Z" fill="#710FEE" fill-opacity="0.2"/>
<path d="M274 14C274 13.4477 274.448 13 275 13C275.552 13 276 13.4477 276 14C276 14.5523 275.552 15 275 15C274.448 15 274 14.5523 274 14Z" fill="#710FEE" fill-opacity="0.2"/>
<path d="M280 14C280 13.4477 280.448 13 281 13C281.552 13 282 13.4477 282 14C282 14.5523 281.552 15 281 15C280.448 15 280 14.5523 280 14Z" fill="#710FEE" fill-opacity="0.2"/>
<path d="M286 8C286 7.44772 286.448 7 287 7C287.552 7 288 7.44772 288 8C288 8.55228 287.552 9 287 9C286.448 9 286 8.55228 286 8Z" fill="#710FEE" fill-opacity="0.2"/>
<path d="M292 8C292 7.44772 292.448 7 293 7C293.552 7 294 7.44772 294 8C294 8.55228 293.552 9 293 9C292.448 9 292 8.55228 292 8Z" fill="#710FEE" fill-opacity="0.2"/>
<path d="M286 14C286 13.4477 286.448 13 287 13C287.552 13 288 13.4477 288 14C288 14.5523 287.552 15 287 15C286.448 15 286 14.5523 286 14Z" fill="#710FEE" fill-opacity="0.2"/>
<path d="M292 14C292 13.4477 292.448 13 293 13C293.552 13 294 13.4477 294 14C294 14.5523 293.552 15 293 15C292.448 15 292 14.5523 292 14Z" fill="#710FEE" fill-opacity="0.2"/>
</svg>
